<svg width="211" height="50" viewBox="0 0 211 50" fill="none" xmlns="http://www.w3.org/2000/svg">
<path d="M25.0021 4.16675C36.5083 4.16675 45.8354 13.4938 45.8354 25.0001C45.8354 36.5063 36.5083 45.8334 25.0021 45.8334C21.3203 45.8398 17.7033 44.8654 14.5229 43.0105L4.17707 45.8334L6.99373 35.4834C5.1374 32.302 4.16228 28.6835 4.16873 25.0001C4.16873 13.4938 13.4958 4.16675 25.0021 4.16675ZM17.9021 15.2084L17.4854 15.2251C17.216 15.2436 16.9528 15.3144 16.7104 15.4334C16.4845 15.5616 16.2782 15.7215 16.0979 15.9084C15.8479 16.1438 15.7062 16.348 15.5541 16.5459C14.7836 17.5478 14.3687 18.7778 14.375 20.0417C14.3791 21.0626 14.6458 22.0563 15.0625 22.9855C15.9146 24.8647 17.3166 26.8542 19.1666 28.698C19.6125 29.1417 20.05 29.5876 20.5208 30.0022C22.8196 32.0259 25.5589 33.4854 28.5208 34.2647L29.7042 34.4459C30.0896 34.4667 30.475 34.4376 30.8625 34.4188C31.4691 34.3868 32.0614 34.2226 32.5979 33.9376C32.8705 33.7966 33.1367 33.6437 33.3958 33.4792C33.3958 33.4792 33.484 33.4195 33.6562 33.2917C33.9375 33.0834 34.1104 32.9355 34.3437 32.6917C34.5187 32.5112 34.6646 32.3015 34.7812 32.0626C34.9437 31.723 35.1062 31.0751 35.1729 30.5355C35.2229 30.123 35.2083 29.898 35.2021 29.7584C35.1937 29.5355 35.0083 29.3042 34.8062 29.2063L33.5937 28.6626C33.5937 28.6626 31.7812 27.873 30.6729 27.3688C30.5569 27.3183 30.4326 27.2894 30.3062 27.2834C30.1637 27.2685 30.0196 27.2844 29.8837 27.3301C29.7478 27.3757 29.6234 27.45 29.5187 27.548C29.5083 27.5438 29.3687 27.6626 27.8625 29.4876C27.776 29.6038 27.6569 29.6915 27.5204 29.7398C27.3839 29.788 27.2361 29.7945 27.0958 29.7584C26.96 29.7222 26.8271 29.6763 26.6979 29.6209C26.4396 29.5126 26.35 29.4709 26.1729 29.3959C24.9768 28.8749 23.8697 28.1698 22.8916 27.3063C22.6292 27.0772 22.3854 26.8272 22.1354 26.5855C21.3158 25.8005 20.6015 24.9126 20.0104 23.9438L19.8875 23.7459C19.8005 23.6122 19.7292 23.4689 19.675 23.3188C19.5958 23.0126 19.8021 22.7667 19.8021 22.7667C19.8021 22.7667 20.3083 22.2126 20.5437 21.9126C20.7729 21.6209 20.9667 21.3376 21.0917 21.1355C21.3375 20.7397 21.4146 20.3334 21.2854 20.0188C20.7021 18.5938 20.0993 17.1765 19.4771 15.7667C19.3541 15.4876 18.9896 15.2876 18.6583 15.248C18.5458 15.2341 18.4333 15.223 18.3208 15.2147C18.0411 15.1986 17.7606 15.2014 17.4812 15.223L17.9021 15.2084Z" fill="white"/>
<path d="M79.8333 4.25C68.375 4.25 59 13.6042 59 25.125C59 35.5417 66.625 44.1875 76.5833 45.75V31.1667H71.2917V25.125H76.5833V20.5208C76.5833 15.2917 79.6875 12.4167 84.4583 12.4167C86.7292 12.4167 89.1042 12.8125 89.1042 12.8125V17.9583H86.4792C83.8958 17.9583 83.0833 19.5625 83.0833 21.2083V25.125H88.875L87.9375 31.1667H83.0833V45.75C87.9926 44.9747 92.4629 42.4698 95.6873 38.6876C98.9118 34.9054 100.678 30.0951 100.667 25.125C100.667 13.6042 91.2917 4.25 79.8333 4.25Z" fill="white"/>
<path d="M130.5 19.8334C129.478 19.8334 128.479 20.1364 127.63 20.7042C126.78 21.2719 126.118 22.0788 125.727 23.0229C125.336 23.967 125.233 25.0058 125.433 26.008C125.632 27.0103 126.124 27.9309 126.847 28.6535C127.569 29.376 128.49 29.8681 129.492 30.0675C130.494 30.2668 131.533 30.1645 132.477 29.7735C133.421 29.3824 134.228 28.7202 134.796 27.8705C135.364 27.0209 135.667 26.022 135.667 25.0001C135.667 24.3216 135.533 23.6497 135.273 23.0229C135.014 22.396 134.633 21.8265 134.153 21.3467C133.674 20.8669 133.104 20.4864 132.477 20.2267C131.85 19.9671 131.179 19.8334 130.5 19.8334ZM151.188 14.7292C151.177 13.1204 150.88 11.5263 150.313 10.0209C149.894 8.91937 149.247 7.91903 148.414 7.08588C147.581 6.25274 146.581 5.60574 145.479 5.18758C143.974 4.6198 142.38 4.32354 140.771 4.31258C138.083 4.16675 137.292 4.16675 130.5 4.16675C123.708 4.16675 122.917 4.16675 120.229 4.31258C118.62 4.32354 117.026 4.6198 115.521 5.18758C114.419 5.60574 113.419 6.25274 112.586 7.08588C111.753 7.91903 111.106 8.91937 110.688 10.0209C110.12 11.5263 109.824 13.1204 109.813 14.7292C109.667 17.4167 109.667 18.2084 109.667 25.0001C109.667 31.7917 109.667 32.5834 109.813 35.2709C109.835 36.8854 110.131 38.4844 110.688 40.0001C111.104 41.0966 111.75 42.0911 112.583 42.9168C113.413 43.7549 114.415 44.4019 115.521 44.8126C117.026 45.3804 118.62 45.6766 120.229 45.6876C122.917 45.8334 123.708 45.8334 130.5 45.8334C137.292 45.8334 138.083 45.8334 140.771 45.6876C142.38 45.6766 143.974 45.3804 145.479 44.8126C146.585 44.4019 147.587 43.7549 148.417 42.9168C149.25 42.0911 149.896 41.0966 150.313 40.0001C150.88 38.4873 151.176 36.8865 151.188 35.2709C151.333 32.5834 151.333 31.7917 151.333 25.0001C151.333 18.2084 151.333 17.4167 151.188 14.7292ZM145.896 31.3959C145.829 32.6815 145.555 33.9479 145.083 35.1459C144.679 36.1453 144.078 37.0531 143.315 37.8154C142.553 38.5777 141.645 39.179 140.646 39.5834C139.437 40.0284 138.163 40.2746 136.875 40.3126H124.125C122.837 40.2746 121.564 40.0284 120.354 39.5834C119.321 39.1995 118.388 38.587 117.625 37.7917C116.87 37.0444 116.287 36.1415 115.917 35.1459C115.47 33.9378 115.231 32.6629 115.208 31.3751V18.6251C115.231 17.3372 115.47 16.0623 115.917 14.8542C116.301 13.8211 116.913 12.8882 117.708 12.1251C118.459 11.3743 119.361 10.7919 120.354 10.4167C121.564 9.97176 122.837 9.72552 124.125 9.68758H136.875C138.163 9.72552 139.437 9.97176 140.646 10.4167C141.679 10.8007 142.612 11.4132 143.375 12.2084C144.13 12.9558 144.713 13.8587 145.083 14.8542C145.528 16.0636 145.775 17.337 145.813 18.6251V25.0001C145.813 29.2917 145.958 29.7292 145.896 31.3751V31.3959ZM142.563 15.8959C142.315 15.223 141.923 14.6118 141.416 14.1047C140.909 13.5976 140.298 13.2065 139.625 12.9584C138.701 12.6381 137.728 12.483 136.75 12.5001H124.25C123.267 12.5097 122.294 12.6931 121.375 13.0417C120.712 13.2785 120.108 13.6537 119.601 14.1422C119.095 14.6307 118.698 15.2214 118.438 15.8751C118.135 16.8029 117.987 17.7742 118 18.7501V31.2501C118.021 32.2317 118.204 33.2032 118.542 34.1251C118.79 34.798 119.181 35.4092 119.688 35.9163C120.195 36.4235 120.806 36.8145 121.479 37.0626C122.368 37.3895 123.304 37.5723 124.25 37.6042H136.75C137.733 37.5946 138.706 37.4113 139.625 37.0626C140.298 36.8145 140.909 36.4235 141.416 35.9163C141.923 35.4092 142.315 34.798 142.563 34.1251C142.911 33.2062 143.095 32.2329 143.104 31.2501V18.7501C143.105 17.7663 142.921 16.7912 142.563 15.8751V15.8959ZM130.5 32.9584C129.456 32.9584 128.422 32.7524 127.458 32.3522C126.493 31.952 125.617 31.3655 124.88 30.6262C124.143 29.8869 123.558 29.0095 123.161 28.044C122.763 27.0786 122.56 26.0442 122.563 25.0001C122.563 23.4252 123.03 21.8857 123.905 20.5765C124.781 19.2673 126.025 18.2473 127.48 17.6456C128.936 17.0438 130.537 16.8875 132.081 17.1962C133.626 17.505 135.044 18.265 136.156 19.3801C137.268 20.4952 138.024 21.9152 138.329 23.4603C138.634 25.0054 138.473 26.6062 137.867 28.0601C137.262 29.5139 136.239 30.7554 134.927 31.6273C133.616 32.4993 132.075 32.9625 130.5 32.9584ZM138.833 18.6042C138.373 18.5555 137.947 18.338 137.637 17.9938C137.327 17.6495 137.156 17.2028 137.156 16.7397C137.156 16.2766 137.327 15.8298 137.637 15.4856C137.947 15.1413 138.373 14.9238 138.833 14.8751C139.294 14.9238 139.72 15.1413 140.03 15.4856C140.34 15.8298 140.511 16.2766 140.511 16.7397C140.511 17.2028 140.34 17.6495 140.03 17.9938C139.72 18.338 139.294 18.5555 138.833 18.6042Z" fill="white"/>
<path d="M201.235 16.6603C201.263 17.0249 201.263 17.3874 201.263 17.7499C201.263 28.8436 192.819 41.627 177.388 41.627C172.633 41.627 168.217 40.2499 164.5 37.8582C165.175 37.9353 165.825 37.9624 166.527 37.9624C170.304 37.9715 173.974 36.7085 176.946 34.377C175.195 34.3453 173.497 33.7675 172.09 32.7243C170.683 31.6812 169.637 30.2247 169.098 28.5582C169.617 28.6353 170.138 28.6874 170.683 28.6874C171.435 28.6874 172.192 28.5832 172.894 28.402C170.993 28.0182 169.284 26.9881 168.058 25.4867C166.831 23.9853 166.162 22.1054 166.165 20.1666V20.0624C167.283 20.6853 168.581 21.0749 169.956 21.127C168.804 20.3615 167.86 19.3229 167.207 18.1036C166.554 16.8844 166.213 15.5225 166.215 14.1395C166.215 12.5811 166.629 11.152 167.356 9.90614C169.465 12.4999 172.095 14.6219 175.076 16.1346C178.057 17.6473 181.322 18.517 184.66 18.6874C184.531 18.0624 184.452 17.4145 184.452 16.7645C184.452 15.6623 184.668 14.5708 185.09 13.5525C185.511 12.5341 186.129 11.6088 186.909 10.8294C187.688 10.0501 188.613 9.43199 189.632 9.01047C190.65 8.58894 191.742 8.37226 192.844 8.3728C195.26 8.3728 197.442 9.3853 198.975 11.0228C200.854 10.6595 202.655 9.97368 204.3 8.99572C203.674 10.9349 202.362 12.5793 200.61 13.6207C202.277 13.4307 203.905 12.9925 205.442 12.3207C204.294 13.9938 202.872 15.461 201.235 16.6603Z" fill="white" fill-opacity="0.8"/>
</svg>
